<?xml version="1.0" encoding="UTF-8"?>
<svg id="Layer_2" data-name="Layer 2" xmlns="http://www.w3.org/2000/svg" viewBox="0 0 37.08 38.1">
  <defs>
    <style>
      .cls-1 {
        fill: #d62227;
      }
    </style>
  </defs>
  <g id="Layer_1-2" data-name="Layer 1">
    <g>
      <polyline class="cls-1" points="22.88 35.18 33.19 27.68 31.84 26.73 34.25 17.63 23.9 21.34 25.13 10.64 23.14 11.93 18.54 3.91 13.94 11.93 11.96 10.64 13.18 21.34 2.83 17.63 5.24 26.73 3.89 27.68 13.05 34.47 13.01 34.52 13.08 34.49 13.98 35.23 7.5 37.85 10.08 34.69 .56 27.64 3.02 25.92 0 14.56 10.9 18.45 9.55 6.76 13.28 9.18 18.54 0 23.8 9.18 27.53 6.76 26.19 18.45 37.08 14.56 34.07 25.92 36.52 27.64 27 34.69 29.48 38.1 22.88 35.18"/>
      <polygon class="cls-1" points="20.77 14.97 13.69 28.91 17.75 27.69 16.99 35.18 23.39 24.12 19.73 25.07 20.77 14.97 20.77 14.97"/>
    </g>
  </g>
</svg>