<?xml version="1.0" encoding="UTF-8"?>
<svg id="Layer_2" data-name="Layer 2" xmlns="http://www.w3.org/2000/svg" viewBox="0 0 90.12 63.08">
  <defs>
    <style>
      .cls-1 {
        fill: #d62227;
      }

      .cls-2 {
        fill: #33333f;
      }
    </style>
  </defs>
  <g id="Layer_1-2" data-name="Layer 1">
    <path class="cls-2" d="M0,50.74h2.43v5.83h3.89v-5.83h2.42v12.01h-2.42v-4.08h-3.89v4.08H0v-12.01Z"/>
    <path class="cls-2" d="M14.62,52.49h.43l4.86,10.26h-2.61l-.5-1.03h-3.92l-.48,1.03h-2.61l4.83-10.26ZM15.98,59.98l-1.14-2.51h-.03l-1.16,2.51h2.33Z"/>
    <path class="cls-2" d="M20.48,52.82h2.42v6.22c0,1.32.63,1.79,1.47,1.79.93,0,1.51-.46,1.51-1.79v-6.22h2.43v6.58c0,2.35-1.75,3.67-3.94,3.67s-3.89-1.39-3.89-3.67v-6.58Z"/>
    <path class="cls-2" d="M32.21,59.84c0,.58.46,1.04,1.03,1.04.61,0,.99-.35.99-.86,0-.74-.98-.96-1.79-1.24-1.67-.6-2.6-1.37-2.6-3.08s1.5-3.21,3.37-3.21c2.2,0,3.24,1.41,3.38,3.24h-2.28c0-.56-.35-1.03-1.03-1.03-.53,0-1.04.31-1.04.96,0,.74.91.88,1.75,1.12,1.77.53,2.6,1.52,2.6,3.08,0,1.75-1.49,3.21-3.36,3.21-2.17,0-3.39-1.46-3.39-3.24h2.37Z"/>
    <path class="cls-2" d="M39.3,50.74h4.71c2.31,0,3.66,1.71,3.66,3.6,0,2.1-1.58,3.6-3.66,3.6h-1.97v4.8h-2.74v-12.01ZM43.74,55.58c.71,0,1.11-.66,1.11-1.31,0-.62-.37-1.18-1.11-1.18h-1.71v2.5h1.71Z"/>
    <path class="cls-2" d="M53.34,52.49c3.13,0,5.34,2.33,5.34,5.29s-2.22,5.29-5.34,5.29-5.34-2.33-5.34-5.29,2.2-5.29,5.34-5.29ZM53.34,60.78c1.75,0,2.88-1.32,2.88-2.99s-1.12-2.99-2.88-2.99-2.88,1.32-2.88,2.99,1.11,2.99,2.88,2.99Z"/>
    <path class="cls-2" d="M59.25,52.82h2.55l2,4.68,1.21-3.11-.63-1.57h2.51l1.98,4.66,1.82-4.66h2.53l-4.14,10.25h-.33l-2.45-5.72-2.37,5.72h-.31l-4.38-10.25Z"/>
    <path class="cls-2" d="M74.19,52.82h6.57v2.15h-4.13v1.79h3.82v2.12h-3.82v1.79h4.32v2.08h-6.75v-9.92Z"/>
    <path class="cls-2" d="M82.12,52.82h4.15c2.13,0,3.52,1.29,3.52,3.16,0,1.74-.88,2.71-2.35,3.08l2.68,3.69h-3.04l-2.53-3.71v3.71h-2.43v-9.92ZM86.5,57.12c.55,0,.91-.56.91-1.14s-.43-1.09-.98-1.09h-1.89v2.23h1.95Z"/>
    <g>
      <polyline class="cls-1" points="49.4 35.18 59.72 27.68 58.36 26.73 60.77 17.63 50.42 21.34 51.65 10.64 49.66 11.93 45.06 3.91 40.47 11.93 38.48 10.64 39.71 21.34 29.35 17.63 31.77 26.73 30.41 27.68 39.57 34.47 39.53 34.52 39.61 34.49 40.5 35.23 34.02 37.85 36.6 34.69 27.08 27.64 29.54 25.92 26.52 14.56 37.42 18.45 36.07 6.76 39.8 9.18 45.06 0 50.32 9.18 54.05 6.76 52.71 18.45 63.6 14.56 60.59 25.92 63.04 27.64 53.52 34.69 56 38.1 49.4 35.18"/>
      <polygon class="cls-1" points="47.3 14.97 40.21 28.91 44.27 27.69 43.51 35.18 49.91 24.12 46.25 25.07 47.3 14.97 47.3 14.97"/>
    </g>
  </g>
</svg>