<?xml version="1.0" encoding="UTF-8"?>
<svg id="Layer_2" data-name="Layer 2" xmlns="http://www.w3.org/2000/svg" viewBox="0 0 126.05 28.29">
  <defs>
    <style>
      .cls-1 {
        fill: #102026;
      }

      .cls-2 {
        fill: #d72327;
      }
    </style>
  </defs>
  <g id="Layer_1-2" data-name="Layer 1">
    <g>
      <path class="cls-1" d="M35.93,10.01h2.43v5.83h3.89v-5.83h2.42v12.01h-2.42v-4.08h-3.89v4.08h-2.43v-12.01Z"/>
      <path class="cls-1" d="M50.55,11.76h.43l4.86,10.26h-2.61l-.5-1.03h-3.92l-.48,1.03h-2.61l4.83-10.26ZM51.91,19.26l-1.14-2.51h-.03l-1.16,2.51h2.33Z"/>
      <path class="cls-1" d="M56.41,12.09h2.42v6.22c0,1.32.63,1.79,1.47,1.79.93,0,1.51-.46,1.51-1.79v-6.22h2.43v6.58c0,2.35-1.75,3.67-3.94,3.67s-3.89-1.39-3.89-3.67v-6.58Z"/>
      <path class="cls-1" d="M68.14,19.11c0,.58.46,1.04,1.03,1.04.61,0,.99-.35.99-.86,0-.74-.98-.96-1.79-1.24-1.67-.6-2.6-1.37-2.6-3.08s1.5-3.21,3.37-3.21c2.2,0,3.24,1.41,3.38,3.24h-2.28c0-.56-.35-1.03-1.03-1.03-.53,0-1.04.31-1.04.96,0,.74.91.88,1.75,1.12,1.77.53,2.6,1.52,2.6,3.08,0,1.75-1.49,3.21-3.36,3.21-2.17,0-3.39-1.46-3.39-3.24h2.37Z"/>
      <path class="cls-1" d="M75.23,10.01h4.71c2.31,0,3.66,1.71,3.66,3.6,0,2.1-1.58,3.6-3.66,3.6h-1.97v4.8h-2.74v-12.01ZM79.67,14.85c.71,0,1.11-.66,1.11-1.31,0-.62-.37-1.18-1.11-1.18h-1.71v2.5h1.71Z"/>
      <path class="cls-1" d="M89.27,11.76c3.13,0,5.34,2.33,5.34,5.29s-2.22,5.29-5.34,5.29-5.34-2.33-5.34-5.29,2.2-5.29,5.34-5.29ZM89.27,20.05c1.75,0,2.88-1.32,2.88-2.99s-1.12-2.99-2.88-2.99-2.88,1.32-2.88,2.99,1.11,2.99,2.88,2.99Z"/>
      <path class="cls-1" d="M95.18,12.09h2.55l2,4.68,1.21-3.11-.63-1.57h2.51l1.98,4.66,1.82-4.66h2.53l-4.14,10.25h-.33l-2.45-5.72-2.37,5.72h-.31l-4.38-10.25Z"/>
      <path class="cls-1" d="M110.12,12.09h6.57v2.15h-4.13v1.79h3.82v2.12h-3.82v1.79h4.32v2.08h-6.75v-9.92Z"/>
      <path class="cls-1" d="M118.05,12.09h4.15c2.13,0,3.52,1.29,3.52,3.16,0,1.74-.88,2.71-2.35,3.08l2.68,3.69h-3.04l-2.53-3.71v3.71h-2.43v-9.92ZM122.43,16.4c.55,0,.91-.56.91-1.14s-.43-1.09-.98-1.09h-1.89v2.23h1.95Z"/>
      <g>
        <polygon class="cls-2" points="24.99 18.93 27.22 10.52 19.35 13.34 20.33 4.84 17.46 6.71 13.61 0 9.76 6.71 6.89 4.84 7.87 13.34 0 10.52 2.23 18.93 .34 20.25 7.22 25.35 4.97 28.11 10.78 25.76 10.01 25.13 10.02 25.12 9.75 24.91 9.74 24.92 3.5 20.29 4.34 19.7 2.68 13.44 10.04 16.07 9.17 8.52 10.39 9.32 13.61 3.71 16.83 9.32 18.05 8.52 17.18 16.07 24.54 13.44 22.88 19.7 23.72 20.29 16.27 25.71 22.12 28.29 19.99 25.36 26.88 20.25 24.99 18.93"/>
        <polygon class="cls-2" points="16.77 17.67 15.94 17.89 14.61 18.23 15.08 13.7 15.27 11.8 14.41 13.5 10.87 20.46 10.5 21.2 11.29 20.96 12.81 20.51 12.48 23.72 12.31 25.36 13.14 23.93 16.34 18.41 16.77 17.67"/>
      </g>
    </g>
  </g>
</svg>